<?xml version="1.0" encoding="UTF-8"?>
<svg width="40" height="40" viewBox="0 0 40 40" fill="none" xmlns="http://www.w3.org/2000/svg">
  <path d="M20 4C11.16 4 4 11.16 4 20C4 28.84 11.16 36 20 36C28.84 36 36 28.84 36 20C36 11.16 28.84 4 20 4ZM20 32C12.28 32 6 25.72 6 18C6 10.28 12.28 4 20 4C27.72 4 34 10.28 34 18C34 25.72 27.72 32 20 32Z" fill="#28A745"/>
  <path d="M20 8C13.37 8 8 13.37 8 20C8 26.63 13.37 32 20 32C26.63 32 32 26.63 32 20C32 13.37 26.63 8 20 8ZM20 28C15.58 28 12 24.42 12 20C12 15.58 15.58 12 20 12C24.42 12 28 15.58 28 20C28 24.42 24.42 28 20 28Z" fill="#28A745"/>
  <path d="M20 12C16.69 12 14 14.69 14 18C14 21.31 16.69 24 20 24C23.31 24 26 21.31 26 18C26 14.69 23.31 12 20 12ZM20 20C18.9 20 18 19.1 18 18C18 16.9 18.9 16 20 16C21.1 16 22 16.9 22 18C22 19.1 21.1 20 20 20Z" fill="#28A745"/>
</svg> 